#!OML:ASF X:\für Bonn\!DataBase\2005_08_10_Bjorn_Final\c3d\bjorn.ASF
:FULLY-SPECIFIED
:DEGREES
157
root 4.05036 7.84729 0.581432 465.032 81.498 -601.024
lowerback 45.0462 -4.46004 6.51925
upperback 22.008 1.72773 3.04214
thorax 3.97788 3.07019 -0.430401
lowerneck -7.6009 -8.71559 3.60038
upperneck 2.66063 -11.882 -2.34501
head 1.75903 -5.95827 -1.76232
rclavicle -3.18055e-015 -1.59028e-014
rhumerus 9.51635 -21.5186 -71.7512
rradius 19.6522
rwrist 33.6091
rhand -50.6119 38.4849
rfingers 7.12502
rthumb -23.1763 9.85925
lclavicle -3.18055e-015 -1.59028e-014
lhumerus -1.69492 -36.8564 75.2568
lradius 42.8127
lwrist -19.1749
lhand -31.4646 -15.8558
lfingers 7.12502
lthumb -4.73178 14.0714
rfemur 168.174 65.6828 52.8491
rtibia 205.664
rfoot -118.545 98.5716
rtoes -9.35913
lfemur -83.4458 31.2197 -26.4931
ltibia 153.101
lfoot -30.8772 -14.1563
ltoes -29.5128
158
root 4.06084 7.88821 0.572671 464.881 81.6013 -601.386
lowerback 44.8633 -4.34418 6.48543
upperback 21.9457 1.80408 3.14647
thorax 3.94653 3.07789 -0.332029
lowerneck -7.81128 -8.54177 3.45898
upperneck 2.27496 -11.6362 -2.58334
head 1.67283 -5.84847 -1.80456
rclavicle 2.54444e-014 9.54166e-015
rhumerus 9.70505 -21.8999 -71.806
rradius 19.3429
rwrist 33.9828
rhand -50.5043 38.1596
rfingers 7.12502
rthumb -23.073 9.52095
lclavicle 2.54444e-014 9.54166e-015
lhumerus -1.52147 -37.0821 74.9696
lradius 42.8716
lwrist -18.9744
lhand -31.474 -16.0163
lfingers 7.12502
lthumb -4.74088 13.9106
rfemur 168.453 65.897 53.8896
rtibia 205.879
rfoot -115.448 98.491
rtoes -9.35012
lfemur -83.4286 31.1577 -26.6558
ltibia 152.907
lfoot -30.815 -13.9844
ltoes -29.1864
159
root 4.07151 7.93377 0.563505 464.59 81.6661 -601.91
lowerback 44.6286 -4.21987 6.44374
upperback 21.9065 1.88203 3.22591
thorax 3.95507 3.09032 -0.254875
lowerneck -8.07563 -8.37275 3.32774
upperneck 1.88817 -11.3996 -2.81228
head 1.59597 -5.74182 -1.849
rclavicle 3.81667e-014 1.59028e-014
rhumerus 9.86819 -22.1615 -71.8226
rradius 19.0833
rwrist 34.1421
rhand -50.2781 37.5195
rfingers 7.12502
rthumb -22.856 8.8539
lclavicle 3.81667e-014 1.59028e-014
lhumerus -1.26455 -37.303 74.5931
lradius 42.9621
lwrist -18.9337
lhand -31.3321 -16.0614
lfingers 7.12502
lthumb -4.60379 13.8686
rfemur 168.887 66.1776 55.0919
rtibia 206.127
rfoot -112.124 98.4778
rtoes -9.52773
lfemur -83.407 31.1029 -26.9302
ltibia 152.663
lfoot -30.7748 -13.6706
ltoes -29.1291
160
root 4.08164 7.98389 0.555491 464.4 81.7094 -602.341
lowerback 44.4032 -4.09803 6.3733
upperback 21.8601 1.94748 3.30241
thorax 3.95165 3.09346 -0.163066
lowerneck -8.41223 -8.19305 3.17034
upperneck 1.53859 -11.1466 -3.03312
head 1.54685 -5.62559 -1.89206
rclavicle 1.90833e-014 -1.59028e-014
rhumerus 10.0466 -22.4713 -71.8857
rradius 18.8125
rwrist 34.3825
rhand -50.0165 36.8015
rfingers 7.12502
rthumb -22.605 8.1051
lclavicle 1.90833e-014 -1.59028e-014
lhumerus -0.990909 -37.4916 74.1667
lradius 43.0939
lwrist -18.9892
lhand -31.0491 -16.1252
lfingers 7.12502
lthumb -4.33055 13.8105
rfemur 169.39 66.4447 56.4283
rtibia 206.414
rfoot -108.86 98.3498
rtoes -9.38995
lfemur -83.3815 31.0262 -27.2324
ltibia 152.393
lfoot -30.7701 -13.2726
ltoes -29.2511
161
root 4.09139 8.03851 0.547562 464.247 81.7569 -602.771
lowerback 44.1711 -3.95807 6.28909
upperback 21.7681 2.0198 3.39495
thorax 3.89635 3.09056 -0.0528253
lowerneck -8.66615 -8.00904 3.0184
upperneck 1.18098 -10.8841 -3.27829
head 1.47953 -5.50335 -1.938
rclavicle -6.99722e-014 -1.74931e-014
rhumerus 10.1318 -22.6949 -71.897
rradius 18.5625
rwrist 34.5133
rhand -49.7039 36.0166
rfingers 7.12502
rthumb -22.3049 7.28396
lclavicle -6.99722e-014 -1.74931e-014
lhumerus -0.76525 -37.6441 73.7719
lradius 43.2181
lwrist -19.2867
lhand -30.6501 -16.152
lfingers 7.12502
lthumb -3.94522 13.7912
rfemur 170.1 66.7887 58.0505
rtibia 206.719
rfoot -105.115 98.1785
rtoes -9.28573
lfemur -83.3696 30.9439 -27.5405
ltibia 152.086
lfoot -30.7437 -12.899
ltoes -29.2914
162
root 4.10096 8.09789 0.540213 463.925 81.7681 -603.347
lowerback 43.9643 -3.80676 6.19628
upperback 21.6541 2.1016 3.4538
thorax 3.81091 3.093 0.0211731
lowerneck -8.85159 -7.83439 2.91002
upperneck 0.83646 -10.6369 -3.52214
head 1.40209 -5.38684 -1.98762
rclavicle 0 3.18055e-014
rhumerus 10.1525 -23.0578 -71.9619
rradius 18.3152
rwrist 34.7148
rhand -49.3337 35.3002
rfingers 7.12502
rthumb -21.9494 6.52545
lclavicle 0 3.18055e-014
lhumerus -0.602182 -37.8787 73.2835
lradius 43.4536
lwrist -19.705
lhand -30.1095 -16.2926
lfingers 7.12502
lthumb -3.42321 13.6597
rfemur 8.65931 -67.1742 -119.782
rtibia 152.943
rfoot -100.932 82.0058
rtoes -9.10875
lfemur -83.2203 30.8737 -27.8588
ltibia 151.738
lfoot -30.7868 -12.5013
ltoes -29.3192
